<svg width="40" height="40" viewBox="0 0 40 40" fill="none" xmlns="http://www.w3.org/2000/svg">
<g clip-path="url(#clip0_72_23473)">
<mask id="mask0_72_23473" style="mask-type:luminance" maskUnits="userSpaceOnUse" x="0" y="0" width="40" height="40">
<path d="M0 0H40V40H0V0Z" fill="white"/>
</mask>
<g mask="url(#mask0_72_23473)">
<path d="M13.2281 17.1469C14.7281 16.5944 16.1868 18.0531 15.6343 19.5544L12.3631 28.4469C12.2907 28.6439 12.1699 28.8195 12.0117 28.9575C11.8536 29.0956 11.6633 29.1915 11.4583 29.2366C11.2533 29.2817 11.0402 29.2744 10.8388 29.2155C10.6373 29.1566 10.454 29.0478 10.3056 28.8994L3.88308 22.4769C3.7349 22.3285 3.62644 22.1452 3.56767 21.9439C3.5089 21.7426 3.50172 21.5298 3.54679 21.325C3.59186 21.1202 3.68773 20.93 3.82557 20.7719C3.96341 20.6139 4.1388 20.4931 4.33558 20.4206L13.2281 17.1469Z" fill="#097C6C"/>
<path d="M13.2281 17.1469C14.7281 16.5944 16.1868 18.0531 15.6343 19.5544L12.3631 28.4469C12.2907 28.6439 12.1699 28.8195 12.0117 28.9575C11.8536 29.0956 11.6633 29.1915 11.4583 29.2366C11.2533 29.2817 11.0402 29.2744 10.8388 29.2155C10.6373 29.1566 10.454 29.0478 10.3056 28.8994L3.88308 22.4769C3.7349 22.3285 3.62644 22.1452 3.56767 21.9439C3.5089 21.7426 3.50172 21.5298 3.54679 21.325C3.59186 21.1202 3.68773 20.93 3.82557 20.7719C3.96341 20.6139 4.1388 20.4931 4.33558 20.4206L13.2281 17.1469Z" fill="#059C85"/>
<path d="M13.2281 17.1469C14.7281 16.5944 16.1868 18.0531 15.6343 19.5544L12.3631 28.4469C12.2907 28.6439 12.1699 28.8195 12.0117 28.9575C11.8536 29.0956 11.6633 29.1915 11.4583 29.2366C11.2533 29.2817 11.0402 29.2744 10.8388 29.2155C10.6373 29.1566 10.454 29.0478 10.3056 28.8994L3.88308 22.4769C3.7349 22.3285 3.62644 22.1452 3.56767 21.9439C3.5089 21.7426 3.50172 21.5298 3.54679 21.325C3.59186 21.1202 3.68773 20.93 3.82557 20.7719C3.96341 20.6139 4.1388 20.4931 4.33558 20.4206L13.2281 17.1469Z" fill="#097C6C"/>
<path d="M20.7274 24.6469C22.2274 24.0944 23.6861 25.5531 23.1336 27.0544L19.8599 35.9469C19.7874 36.1437 19.6666 36.319 19.5086 36.4569C19.3505 36.5947 19.1604 36.6906 18.9555 36.7357C18.7507 36.7807 18.5379 36.7736 18.3366 36.7148C18.1353 36.656 17.952 36.5476 17.8036 36.3994L11.3811 29.9769C11.2329 29.8285 11.1245 29.6452 11.0657 29.4439C11.0069 29.2426 10.9998 29.0298 11.0448 28.825C11.0899 28.6202 11.1858 28.43 11.3236 28.2719C11.4615 28.1139 11.6368 27.9931 11.8336 27.9206L20.7274 24.6469Z" fill="#097C6C"/>
<path d="M20.7274 24.6469C22.2274 24.0944 23.6861 25.5531 23.1336 27.0544L19.8599 35.9469C19.7874 36.1437 19.6666 36.319 19.5086 36.4569C19.3505 36.5947 19.1604 36.6906 18.9555 36.7357C18.7507 36.7807 18.5379 36.7736 18.3366 36.7148C18.1353 36.656 17.952 36.5476 17.8036 36.3994L11.3811 29.9769C11.2329 29.8285 11.1245 29.6452 11.0657 29.4439C11.0069 29.2426 10.9998 29.0298 11.0448 28.825C11.0899 28.6202 11.1858 28.43 11.3236 28.2719C11.4615 28.1139 11.6368 27.9931 11.8336 27.9206L20.7274 24.6469Z" fill="#097C6C"/>
<path d="M20.7274 24.6469C22.2274 24.0944 23.6861 25.5531 23.1336 27.0544L19.8599 35.9469C19.7874 36.1437 19.6666 36.319 19.5086 36.4569C19.3505 36.5947 19.1604 36.6906 18.9555 36.7357C18.7507 36.7807 18.5379 36.7736 18.3366 36.7148C18.1353 36.656 17.952 36.5476 17.8036 36.3994L11.3811 29.9769C11.2329 29.8285 11.1245 29.6452 11.0657 29.4439C11.0069 29.2426 10.9998 29.0298 11.0448 28.825C11.0899 28.6202 11.1858 28.43 11.3236 28.2719C11.4615 28.1139 11.6368 27.9931 11.8336 27.9206L20.7274 24.6469Z" fill="#097C6C"/>
<g filter="url(#filter0_i_72_23473)">
<path d="M28.0004 4.43704C28.0346 4.42347 28.072 4.42027 28.108 4.42783C28.144 4.43538 28.177 4.45337 28.2029 4.47954L35.5591 11.892C35.5851 11.918 35.6028 11.9511 35.6102 11.9871C35.6175 12.0231 35.6141 12.0605 35.6004 12.0945C33.8379 16.4195 31.4091 21.0195 28.1579 24.272C24.9904 27.4395 19.6329 30.1383 14.7954 32.1233L7.93164 25.2583C9.91664 20.4208 12.6154 15.0645 15.7829 11.897C19.0454 8.63454 23.6629 6.20079 27.9991 4.43829" fill="url(#paint0_linear_72_23473)"/>
<path d="M28.0004 4.43704C28.0346 4.42347 28.072 4.42027 28.108 4.42783C28.144 4.43538 28.177 4.45337 28.2029 4.47954L35.5591 11.892C35.5851 11.918 35.6028 11.9511 35.6102 11.9871C35.6175 12.0231 35.6141 12.0605 35.6004 12.0945C33.8379 16.4195 31.4091 21.0195 28.1579 24.272C24.9904 27.4395 19.6329 30.1383 14.7954 32.1233L7.93164 25.2583C9.91664 20.4208 12.6154 15.0645 15.7829 11.897C19.0454 8.63454 23.6629 6.20079 27.9991 4.43829" fill="url(#paint1_radial_72_23473)"/>
<path d="M28.0004 4.43704C28.0346 4.42347 28.072 4.42027 28.108 4.42783C28.144 4.43538 28.177 4.45337 28.2029 4.47954L35.5591 11.892C35.5851 11.918 35.6028 11.9511 35.6102 11.9871C35.6175 12.0231 35.6141 12.0605 35.6004 12.0945C33.8379 16.4195 31.4091 21.0195 28.1579 24.272C24.9904 27.4395 19.6329 30.1383 14.7954 32.1233L7.93164 25.2583C9.91664 20.4208 12.6154 15.0645 15.7829 11.897C19.0454 8.63454 23.6629 6.20079 27.9991 4.43829" fill="url(#paint2_radial_72_23473)"/>
<path d="M28.0004 4.43704C28.0346 4.42347 28.072 4.42027 28.108 4.42783C28.144 4.43538 28.177 4.45337 28.2029 4.47954L35.5591 11.892C35.5851 11.918 35.6028 11.9511 35.6102 11.9871C35.6175 12.0231 35.6141 12.0605 35.6004 12.0945C33.8379 16.4195 31.4091 21.0195 28.1579 24.272C24.9904 27.4395 19.6329 30.1383 14.7954 32.1233L7.93164 25.2583C9.91664 20.4208 12.6154 15.0645 15.7829 11.897C19.0454 8.63454 23.6629 6.20079 27.9991 4.43829" fill="url(#paint3_radial_72_23473)"/>
<path d="M28.0004 4.43704C28.0346 4.42347 28.072 4.42027 28.108 4.42783C28.144 4.43538 28.177 4.45337 28.2029 4.47954L35.5591 11.892C35.5851 11.918 35.6028 11.9511 35.6102 11.9871C35.6175 12.0231 35.6141 12.0605 35.6004 12.0945C33.8379 16.4195 31.4091 21.0195 28.1579 24.272C24.9904 27.4395 19.6329 30.1383 14.7954 32.1233L7.93164 25.2583C9.91664 20.4208 12.6154 15.0645 15.7829 11.897C19.0454 8.63454 23.6629 6.20079 27.9991 4.43829" fill="url(#paint4_radial_72_23473)"/>
</g>
<g filter="url(#filter1_dii_72_23473)">
<path d="M30.6259 13.8277C30.6356 14.3853 30.534 14.9392 30.3273 15.4571C30.1206 15.975 29.8128 16.4466 29.4219 16.8443C29.031 17.242 28.5648 17.5579 28.0506 17.7735C27.5363 17.9891 26.9842 18.1002 26.4266 18.1002C25.8689 18.1002 25.3168 17.9891 24.8026 17.7735C24.2883 17.5579 23.8221 17.242 23.4312 16.8443C23.0403 16.4466 22.7325 15.975 22.5258 15.4571C22.3191 14.9392 22.2176 14.3853 22.2272 13.8277C22.2462 12.7265 22.697 11.6769 23.4824 10.9048C24.2679 10.1328 25.3252 9.7002 26.4266 9.7002C27.5279 9.7002 28.5852 10.1328 29.3707 10.9048C30.1562 11.6769 30.6069 12.7265 30.6259 13.8277Z" fill="url(#paint5_linear_72_23473)"/>
<path d="M30.6259 13.8277C30.6356 14.3853 30.534 14.9392 30.3273 15.4571C30.1206 15.975 29.8128 16.4466 29.4219 16.8443C29.031 17.242 28.5648 17.5579 28.0506 17.7735C27.5363 17.9891 26.9842 18.1002 26.4266 18.1002C25.8689 18.1002 25.3168 17.9891 24.8026 17.7735C24.2883 17.5579 23.8221 17.242 23.4312 16.8443C23.0403 16.4466 22.7325 15.975 22.5258 15.4571C22.3191 14.9392 22.2176 14.3853 22.2272 13.8277C22.2462 12.7265 22.697 11.6769 23.4824 10.9048C24.2679 10.1328 25.3252 9.7002 26.4266 9.7002C27.5279 9.7002 28.5852 10.1328 29.3707 10.9048C30.1562 11.6769 30.6069 12.7265 30.6259 13.8277Z" fill="url(#paint6_radial_72_23473)"/>
</g>
<path d="M29.332 13.8277C29.34 14.2145 29.2707 14.599 29.1282 14.9587C28.9858 15.3184 28.7729 15.6461 28.5022 15.9225C28.2315 16.1989 27.9083 16.4184 27.5516 16.5683C27.195 16.7183 26.812 16.7955 26.4251 16.7955C26.0382 16.7955 25.6552 16.7183 25.2985 16.5683C24.9418 16.4184 24.6187 16.1989 24.348 15.9225C24.0772 15.6461 23.8644 15.3184 23.7219 14.9587C23.5794 14.599 23.5102 14.2145 23.5182 13.8277C23.534 13.0672 23.8472 12.3431 24.3906 11.8109C24.934 11.2786 25.6644 10.9805 26.4251 10.9805C27.1858 10.9805 27.9161 11.2786 28.4596 11.8109C29.003 12.3431 29.3162 13.0672 29.332 13.8277Z" fill="url(#paint7_radial_72_23473)"/>
<g filter="url(#filter2_i_72_23473)">
<path d="M3.02895 36.9162C2.1452 36.0324 2.5002 29.9024 5.6252 28.6524C5.6252 28.6524 8.7502 27.4024 10.7639 29.4024C12.7777 31.4024 11.8752 33.6524 11.8752 33.6524C10.9914 36.3037 7.22895 37.3574 6.78645 36.9149C6.5427 36.6712 6.98145 36.2274 6.78645 36.0324C6.59145 35.8362 6.28895 36.0599 5.46145 36.4737C4.87145 36.7687 3.3827 37.2699 3.02895 36.9162Z" fill="url(#paint8_radial_72_23473)"/>
<path d="M3.02895 36.9162C2.1452 36.0324 2.5002 29.9024 5.6252 28.6524C5.6252 28.6524 8.7502 27.4024 10.7639 29.4024C12.7777 31.4024 11.8752 33.6524 11.8752 33.6524C10.9914 36.3037 7.22895 37.3574 6.78645 36.9149C6.5427 36.6712 6.98145 36.2274 6.78645 36.0324C6.59145 35.8362 6.28895 36.0599 5.46145 36.4737C4.87145 36.7687 3.3827 37.2699 3.02895 36.9162Z" fill="url(#paint9_radial_72_23473)"/>
</g>
<path d="M7.57499 26.2273C7.74912 26.0531 7.95587 25.9149 8.18343 25.8206C8.411 25.7263 8.65491 25.6777 8.90124 25.6777C9.14757 25.6777 9.39149 25.7263 9.61905 25.8206C9.84661 25.9149 10.0534 26.0531 10.2275 26.2273L14.6462 30.6473C14.9818 31.002 15.1659 31.4735 15.1592 31.9617C15.1525 32.4499 14.9557 32.9163 14.6105 33.2616C14.2653 33.6069 13.7991 33.804 13.3109 33.8109C12.8227 33.8178 12.351 33.634 11.9962 33.2986L7.57499 28.8798C7.40075 28.7057 7.26253 28.499 7.16823 28.2714C7.07393 28.0438 7.02539 27.7999 7.02539 27.5536C7.02539 27.3073 7.07393 27.0633 7.16823 26.8358C7.26253 26.6082 7.40075 26.4015 7.57499 26.2273Z" fill="#2A5A9F"/>
<path d="M7.57499 26.2273C7.74912 26.0531 7.95587 25.9149 8.18343 25.8206C8.411 25.7263 8.65491 25.6777 8.90124 25.6777C9.14757 25.6777 9.39149 25.7263 9.61905 25.8206C9.84661 25.9149 10.0534 26.0531 10.2275 26.2273L14.6462 30.6473C14.9818 31.002 15.1659 31.4735 15.1592 31.9617C15.1525 32.4499 14.9557 32.9163 14.6105 33.2616C14.2653 33.6069 13.7991 33.804 13.3109 33.8109C12.8227 33.8178 12.351 33.634 11.9962 33.2986L7.57499 28.8798C7.40075 28.7057 7.26253 28.499 7.16823 28.2714C7.07393 28.0438 7.02539 27.7999 7.02539 27.5536C7.02539 27.3073 7.07393 27.0633 7.16823 26.8358C7.26253 26.6082 7.40075 26.4015 7.57499 26.2273Z" fill="url(#paint10_radial_72_23473)"/>
<path d="M7.57499 26.2273C7.74912 26.0531 7.95587 25.9149 8.18343 25.8206C8.411 25.7263 8.65491 25.6777 8.90124 25.6777C9.14757 25.6777 9.39149 25.7263 9.61905 25.8206C9.84661 25.9149 10.0534 26.0531 10.2275 26.2273L14.6462 30.6473C14.9818 31.002 15.1659 31.4735 15.1592 31.9617C15.1525 32.4499 14.9557 32.9163 14.6105 33.2616C14.2653 33.6069 13.7991 33.804 13.3109 33.8109C12.8227 33.8178 12.351 33.634 11.9962 33.2986L7.57499 28.8798C7.40075 28.7057 7.26253 28.499 7.16823 28.2714C7.07393 28.0438 7.02539 27.7999 7.02539 27.5536C7.02539 27.3073 7.07393 27.0633 7.16823 26.8358C7.26253 26.6082 7.40075 26.4015 7.57499 26.2273Z" fill="url(#paint11_radial_72_23473)"/>
<path d="M36.4661 3.58852C35.2824 2.40477 33.2061 2.53852 31.6936 3.05852C30.5524 3.44959 29.4212 3.86931 28.3011 4.31727C28.282 4.32494 28.2651 4.33721 28.2518 4.353C28.2386 4.36879 28.2295 4.3876 28.2253 4.40776C28.2211 4.42792 28.2219 4.44881 28.2277 4.46857C28.2336 4.48833 28.2442 4.50635 28.2586 4.52102L35.5211 11.8323C35.5357 11.8465 35.5536 11.8569 35.5731 11.8627C35.5927 11.8684 35.6133 11.8693 35.6333 11.8652C35.6532 11.8611 35.6719 11.8523 35.6877 11.8393C35.7034 11.8264 35.7157 11.8098 35.7236 11.791C36.1772 10.6591 36.6019 9.5158 36.9974 8.36227C37.5099 6.86977 37.9224 5.04477 36.4661 3.58852Z" fill="url(#paint12_linear_72_23473)"/>
<path d="M36.4661 3.58852C35.2824 2.40477 33.2061 2.53852 31.6936 3.05852C30.5524 3.44959 29.4212 3.86931 28.3011 4.31727C28.282 4.32494 28.2651 4.33721 28.2518 4.353C28.2386 4.36879 28.2295 4.3876 28.2253 4.40776C28.2211 4.42792 28.2219 4.44881 28.2277 4.46857C28.2336 4.48833 28.2442 4.50635 28.2586 4.52102L35.5211 11.8323C35.5357 11.8465 35.5536 11.8569 35.5731 11.8627C35.5927 11.8684 35.6133 11.8693 35.6333 11.8652C35.6532 11.8611 35.6719 11.8523 35.6877 11.8393C35.7034 11.8264 35.7157 11.8098 35.7236 11.791C36.1772 10.6591 36.6019 9.5158 36.9974 8.36227C37.5099 6.86977 37.9224 5.04477 36.4661 3.58852Z" fill="url(#paint13_radial_72_23473)"/>
<path d="M36.4661 3.58852C35.2824 2.40477 33.2061 2.53852 31.6936 3.05852C30.5524 3.44959 29.4212 3.86931 28.3011 4.31727C28.282 4.32494 28.2651 4.33721 28.2518 4.353C28.2386 4.36879 28.2295 4.3876 28.2253 4.40776C28.2211 4.42792 28.2219 4.44881 28.2277 4.46857C28.2336 4.48833 28.2442 4.50635 28.2586 4.52102L35.5211 11.8323C35.5357 11.8465 35.5536 11.8569 35.5731 11.8627C35.5927 11.8684 35.6133 11.8693 35.6333 11.8652C35.6532 11.8611 35.6719 11.8523 35.6877 11.8393C35.7034 11.8264 35.7157 11.8098 35.7236 11.791C36.1772 10.6591 36.6019 9.5158 36.9974 8.36227C37.5099 6.86977 37.9224 5.04477 36.4661 3.58852Z" fill="url(#paint14_linear_72_23473)"/>
<path d="M16.9774 20.8969C18.4774 20.3444 19.9361 21.8031 19.3836 23.3044L16.1111 32.1969C16.0387 32.3939 15.9179 32.5695 15.7598 32.7075C15.6016 32.8456 15.4113 32.9415 15.2063 32.9866C15.0013 33.0317 14.7883 33.0244 14.5868 32.9655C14.3854 32.9066 14.202 32.7978 14.0536 32.6494L7.63113 26.2269C7.48295 26.0785 7.37448 25.8952 7.31571 25.6939C7.25695 25.4926 7.24977 25.2798 7.29484 25.075C7.3399 24.8702 7.43577 24.68 7.57362 24.5219C7.71146 24.3639 7.88685 24.2431 8.08363 24.1706L16.9774 20.8969Z" fill="url(#paint15_linear_72_23473)"/>
<path d="M16.9774 20.8969C18.4774 20.3444 19.9361 21.8031 19.3836 23.3044L16.1111 32.1969C16.0387 32.3939 15.9179 32.5695 15.7598 32.7075C15.6016 32.8456 15.4113 32.9415 15.2063 32.9866C15.0013 33.0317 14.7883 33.0244 14.5868 32.9655C14.3854 32.9066 14.202 32.7978 14.0536 32.6494L7.63113 26.2269C7.48295 26.0785 7.37448 25.8952 7.31571 25.6939C7.25695 25.4926 7.24977 25.2798 7.29484 25.075C7.3399 24.8702 7.43577 24.68 7.57362 24.5219C7.71146 24.3639 7.88685 24.2431 8.08363 24.1706L16.9774 20.8969Z" fill="url(#paint16_radial_72_23473)"/>
<path d="M16.9774 20.8969C18.4774 20.3444 19.9361 21.8031 19.3836 23.3044L16.1111 32.1969C16.0387 32.3939 15.9179 32.5695 15.7598 32.7075C15.6016 32.8456 15.4113 32.9415 15.2063 32.9866C15.0013 33.0317 14.7883 33.0244 14.5868 32.9655C14.3854 32.9066 14.202 32.7978 14.0536 32.6494L7.63113 26.2269C7.48295 26.0785 7.37448 25.8952 7.31571 25.6939C7.25695 25.4926 7.24977 25.2798 7.29484 25.075C7.3399 24.8702 7.43577 24.68 7.57362 24.5219C7.71146 24.3639 7.88685 24.2431 8.08363 24.1706L16.9774 20.8969Z" fill="url(#paint17_radial_72_23473)"/>
<path d="M16.9774 20.8969C18.4774 20.3444 19.9361 21.8031 19.3836 23.3044L16.1111 32.1969C16.0387 32.3939 15.9179 32.5695 15.7598 32.7075C15.6016 32.8456 15.4113 32.9415 15.2063 32.9866C15.0013 33.0317 14.7883 33.0244 14.5868 32.9655C14.3854 32.9066 14.202 32.7978 14.0536 32.6494L7.63113 26.2269C7.48295 26.0785 7.37448 25.8952 7.31571 25.6939C7.25695 25.4926 7.24977 25.2798 7.29484 25.075C7.3399 24.8702 7.43577 24.68 7.57362 24.5219C7.71146 24.3639 7.88685 24.2431 8.08363 24.1706L16.9774 20.8969Z" fill="url(#paint18_radial_72_23473)"/>
<g filter="url(#filter3_f_72_23473)">
<path d="M11.5059 27.5586L18.5371 22.0498L14.0059 30.0973L11.5059 27.5586Z" fill="url(#paint19_linear_72_23473)"/>
</g>
</g>
</g>
<defs>
<filter id="filter0_i_72_23473" x="6.93164" y="2.42383" width="28.6816" height="29.6992" filterUnits="userSpaceOnUse" color-interpolation-filters="sRGB">
<feFlood flood-opacity="0" result="BackgroundImageFix"/>
<feBlend mode="normal" in="SourceGraphic" in2="BackgroundImageFix" result="shape"/>
<feColorMatrix in="SourceAlpha" type="matrix" values="0 0 0 0 0 0 0 0 0 0 0 0 0 0 0 0 0 0 127 0" result="hardAlpha"/>
<feOffset dx="-1" dy="-2"/>
<feGaussianBlur stdDeviation="3"/>
<feComposite in2="hardAlpha" operator="arithmetic" k2="-1" k3="1"/>
<feColorMatrix type="matrix" values="0 0 0 0 0.745098 0 0 0 0 0.772549 0 0 0 0 0.952941 0 0 0 1 0"/>
<feBlend mode="normal" in2="shape" result="effect1_innerShadow_72_23473"/>
</filter>
<filter id="filter1_dii_72_23473" x="18.2266" y="6.7002" width="16.4004" height="16.4004" filterUnits="userSpaceOnUse" color-interpolation-filters="sRGB">
<feFlood flood-opacity="0" result="BackgroundImageFix"/>
<feColorMatrix in="SourceAlpha" type="matrix" values="0 0 0 0 0 0 0 0 0 0 0 0 0 0 0 0 0 0 127 0" result="hardAlpha"/>
<feOffset dy="1"/>
<feGaussianBlur stdDeviation="2"/>
<feComposite in2="hardAlpha" operator="out"/>
<feColorMatrix type="matrix" values="0 0 0 0 0.866667 0 0 0 0 0.764706 0 0 0 0 0.847059 0 0 0 1 0"/>
<feBlend mode="normal" in2="BackgroundImageFix" result="effect1_dropShadow_72_23473"/>
<feBlend mode="normal" in="SourceGraphic" in2="effect1_dropShadow_72_23473" result="shape"/>
<feColorMatrix in="SourceAlpha" type="matrix" values="0 0 0 0 0 0 0 0 0 0 0 0 0 0 0 0 0 0 127 0" result="hardAlpha"/>
<feOffset dx="-0.4" dy="0.4"/>
<feGaussianBlur stdDeviation="0.2"/>
<feComposite in2="hardAlpha" operator="arithmetic" k2="-1" k3="1"/>
<feColorMatrix type="matrix" values="0 0 0 0 0.721569 0 0 0 0 0.690196 0 0 0 0 0.701961 0 0 0 1 0"/>
<feBlend mode="normal" in2="shape" result="effect2_innerShadow_72_23473"/>
<feColorMatrix in="SourceAlpha" type="matrix" values="0 0 0 0 0 0 0 0 0 0 0 0 0 0 0 0 0 0 127 0" result="hardAlpha"/>
<feOffset dx="0.4" dy="-0.4"/>
<feGaussianBlur stdDeviation="0.2"/>
<feComposite in2="hardAlpha" operator="arithmetic" k2="-1" k3="1"/>
<feColorMatrix type="matrix" values="0 0 0 0 0.615686 0 0 0 0 0.560784 0 0 0 0 0.65098 0 0 0 1 0"/>
<feBlend mode="normal" in2="effect2_innerShadow_72_23473" result="effect3_innerShadow_72_23473"/>
</filter>
<filter id="filter2_i_72_23473" x="2.60938" y="27.4666" width="9.4668" height="9.57148" filterUnits="userSpaceOnUse" color-interpolation-filters="sRGB">
<feFlood flood-opacity="0" result="BackgroundImageFix"/>
<feBlend mode="normal" in="SourceGraphic" in2="BackgroundImageFix" result="shape"/>
<feColorMatrix in="SourceAlpha" type="matrix" values="0 0 0 0 0 0 0 0 0 0 0 0 0 0 0 0 0 0 127 0" result="hardAlpha"/>
<feOffset dy="-0.8"/>
<feGaussianBlur stdDeviation="0.8"/>
<feComposite in2="hardAlpha" operator="arithmetic" k2="-1" k3="1"/>
<feColorMatrix type="matrix" values="0 0 0 0 0.847059 0 0 0 0 0.505882 0 0 0 0 0.360784 0 0 0 1 0"/>
<feBlend mode="normal" in2="shape" result="effect1_innerShadow_72_23473"/>
</filter>
<filter id="filter3_f_72_23473" x="7.50586" y="18.0498" width="15.0312" height="16.0479" filterUnits="userSpaceOnUse" color-interpolation-filters="sRGB">
<feFlood flood-opacity="0" result="BackgroundImageFix"/>
<feBlend mode="normal" in="SourceGraphic" in2="BackgroundImageFix" result="shape"/>
<feGaussianBlur stdDeviation="2" result="effect1_foregroundBlur_72_23473"/>
</filter>
<linearGradient id="paint0_linear_72_23473" x1="16.8579" y1="10.8395" x2="27.8729" y2="21.9333" gradientUnits="userSpaceOnUse">
<stop stop-color="#CCBBC0"/>
<stop offset="1" stop-color="#EAD2EC"/>
</linearGradient>
<radialGradient id="paint1_radial_72_23473" cx="0" cy="0" r="1" gradientUnits="userSpaceOnUse" gradientTransform="translate(29.9629 26.9708) rotate(-142.447) scale(20.8461 39.1854)">
<stop offset="0.811" stop-color="#E7E5E5" stop-opacity="0"/>
<stop offset="1" stop-color="#E7E5E5"/>
</radialGradient>
<radialGradient id="paint2_radial_72_23473" cx="0" cy="0" r="1" gradientUnits="userSpaceOnUse" gradientTransform="translate(11.4766 26.637) rotate(-56.929) scale(12.2548 5.75963)">
<stop offset="0.281" stop-color="#B5A3A5"/>
<stop offset="1" stop-color="#B5A3A5" stop-opacity="0"/>
</radialGradient>
<radialGradient id="paint3_radial_72_23473" cx="0" cy="0" r="1" gradientUnits="userSpaceOnUse" gradientTransform="translate(7.93079 25.113) rotate(-73.625) scale(10.864 1.84087)">
<stop offset="0.208" stop-color="#B28F96"/>
<stop offset="1" stop-color="#B28F96" stop-opacity="0"/>
</radialGradient>
<radialGradient id="paint4_radial_72_23473" cx="0" cy="0" r="1" gradientUnits="userSpaceOnUse" gradientTransform="translate(33.8879 8.88704) rotate(137.284) scale(16.4687 5.11336)">
<stop stop-color="#FAECF1"/>
<stop offset="1" stop-color="#FAECF1" stop-opacity="0"/>
</radialGradient>
<linearGradient id="paint5_linear_72_23473" x1="22.2272" y1="13.114" x2="30.6259" y2="13.8277" gradientUnits="userSpaceOnUse">
<stop stop-color="#A796A0"/>
<stop offset="1" stop-color="#A5959F"/>
</linearGradient>
<radialGradient id="paint6_radial_72_23473" cx="0" cy="0" r="1" gradientUnits="userSpaceOnUse" gradientTransform="translate(26.4284 13.8277) rotate(90) scale(4.19922)">
<stop offset="0.587" stop-color="#93859B"/>
<stop offset="1" stop-color="#93859B" stop-opacity="0"/>
</radialGradient>
<radialGradient id="paint7_radial_72_23473" cx="0" cy="0" r="1" gradientUnits="userSpaceOnUse" gradientTransform="translate(26.4245 16.7352) rotate(-90) scale(6.05699 5.57032)">
<stop stop-color="#72CDFF"/>
<stop offset="0.738" stop-color="#66ACFF"/>
<stop offset="1" stop-color="#3B57F4"/>
</radialGradient>
<radialGradient id="paint8_radial_72_23473" cx="0" cy="0" r="1" gradientUnits="userSpaceOnUse" gradientTransform="translate(10.2389 30.3087) rotate(135) scale(7.25806 5.70501)">
<stop stop-color="#D46213"/>
<stop offset="1" stop-color="#FF9542"/>
</radialGradient>
<radialGradient id="paint9_radial_72_23473" cx="0" cy="0" r="1" gradientUnits="userSpaceOnUse" gradientTransform="translate(10.3802 36.2124) rotate(-131.186) scale(8.96817 9.45095)">
<stop offset="0.871" stop-color="#FFC484" stop-opacity="0"/>
<stop offset="1" stop-color="#FFC484"/>
</radialGradient>
<radialGradient id="paint10_radial_72_23473" cx="0" cy="0" r="1" gradientUnits="userSpaceOnUse" gradientTransform="translate(8.53749 26.8161) rotate(77.8285) scale(2.038 1.80063)">
<stop stop-color="#8E839A"/>
<stop offset="1" stop-color="#8E839A" stop-opacity="0"/>
</radialGradient>
<radialGradient id="paint11_radial_72_23473" cx="0" cy="0" r="1" gradientUnits="userSpaceOnUse" gradientTransform="translate(9.00874 28.0223) rotate(47.9357) scale(7.76538 4.07045)">
<stop offset="0.86" stop-color="#6175B9" stop-opacity="0"/>
<stop offset="1" stop-color="#6175B9"/>
</radialGradient>
<linearGradient id="paint12_linear_72_23473" x1="36.4724" y1="3.59477" x2="31.8774" y2="8.18977" gradientUnits="userSpaceOnUse">
<stop stop-color="#FF3745"/>
<stop offset="1" stop-color="#ED224B"/>
</linearGradient>
<radialGradient id="paint13_radial_72_23473" cx="0" cy="0" r="1" gradientUnits="userSpaceOnUse" gradientTransform="translate(35.9248 5.43468) rotate(135) scale(10.3085 2.47463)">
<stop offset="0.189" stop-color="#FF5971"/>
<stop offset="1" stop-color="#FF5971" stop-opacity="0"/>
</radialGradient>
<linearGradient id="paint14_linear_72_23473" x1="32.2786" y1="8.49602" x2="32.7374" y2="8.01727" gradientUnits="userSpaceOnUse">
<stop stop-color="#097C6C"/>
<stop offset="1" stop-color="#059C85"/>
</linearGradient>
<linearGradient id="paint15_linear_72_23473" x1="18.9499" y1="21.3306" x2="10.8424" y2="29.4381" gradientUnits="userSpaceOnUse">
<stop stop-color="#FF2644"/>
<stop offset="1" stop-color="#FF2982"/>
</linearGradient>
<radialGradient id="paint16_radial_72_23473" cx="0" cy="0" r="1" gradientUnits="userSpaceOnUse" gradientTransform="translate(7.79488 24.2769) rotate(-20.865) scale(9.32227 2.44049)">
<stop stop-color="#FF95AF"/>
<stop offset="1" stop-color="#FF95AF" stop-opacity="0"/>
</radialGradient>
<radialGradient id="paint17_radial_72_23473" cx="0" cy="0" r="1" gradientUnits="userSpaceOnUse" gradientTransform="translate(6.74738 25.3844) rotate(44.7044) scale(5.76277 1.70227)">
<stop offset="0.382" stop-color="#097C6C"/>
<stop offset="1" stop-color="#097C6C"/>
</radialGradient>
<radialGradient id="paint18_radial_72_23473" cx="0" cy="0" r="1" gradientUnits="userSpaceOnUse" gradientTransform="translate(14.4749 23.9244) rotate(84.6743) scale(9.25872 9.86652)">
<stop offset="0.832" stop-color="#059C85"/>
<stop offset="1" stop-color="#0BC1A3"/>
</radialGradient>
<linearGradient id="paint19_linear_72_23473" x1="17.4821" y1="22.6361" x2="12.3259" y2="28.0273" gradientUnits="userSpaceOnUse">
<stop stop-color="#097C6C"/>
<stop offset="1" stop-color="#097C6C"/>
</linearGradient>
<clipPath id="clip0_72_23473">
<rect width="40" height="40" fill="white"/>
</clipPath>
</defs>
</svg>
